Thu Oct 17 11:03:27 COT 2013
Parameter 1: /var/www/pyl5/ImageProcessing/Execution/vocabulary.xml
Parameter 2: /var/www/pyl5/www/output/images/bb7716073bf1982ea67bb500f02f1f85/script.xml
Parameter 3: /var/www/pyl5/www/output/images/bb7716073bf1982ea67bb500f02f1f85/score.xml
Parameter 4: /var/www/pyl5/ImageProcessing
Parameter 5: /var/www/pyl5/www/output/images/bb7716073bf1982ea67bb500f02f1f85/SoundFilm.log
Parameter 6: 
Parameter 7: 

ffmpeg version N-42091-gf7cba73 Copyright (c) 2000-2012 the FFmpeg developers
  built on Jul  1 2012 05:10:32 with gcc 4.6.3
  configuration: --prefix=/root/ffmpeg-static/32bit --arch=x86_32 --extra-cflags='-m32 -I/root/ffmpeg-static/32bit/include -static' --extra-ldflags='-m32 -L/root/ffmpeg-static/32bit/lib -static' --extra-libs='-lxml2 -lexpat -lfreetype' --enable-static --disable-shared --disable-ffserver --disable-doc --enable-bzlib --enable-zlib --enable-postproc --enable-runtime-cpudetect --enable-libx264 --enable-gpl --enable-libtheora --enable-libvorbis --enable-libmp3lame --enable-gray --enable-libass --enable-libfreetype --enable-libopenjpeg --enable-libspeex --enable-libvo-aacenc --enable-libvo-amrwbenc --enable-version3 --enable-libvpx
  libavutil      51. 63.100 / 51. 63.100
  libavcodec     54. 31.100 / 54. 31.100
  libavformat    54. 14.100 / 54. 14.100
  libavdevice    54.  0.100 / 54.  0.100
  libavfilter     3.  0.100 /  3.  0.100
  libswscale      2.  1.100 /  2.  1.100
  libswresample   0. 15.100 /  0. 15.100
  libpostproc    52.  0.100 / 52.  0.100
[wav @ 0xadb5660] max_analyze_duration 5000000 reached at 5015510
Guessed Channel Layout for  Input Stream #0.0 : stereo
Input #0, wav, from '/var/www/pyl5/www/output/images/bb7716073bf1982ea67bb500f02f1f85/tmpgarage.wav':
  Duration: 00:00:06.90, bitrate: 1411 kb/s
    Stream #0:0: Audio: pcm_s16le ([1][0][0][0] / 0x0001), 44100 Hz, stereo, s16, 1411 kb/s
[graph 0 input from stream 0:0 @ 0xae1d420] tb:1/44100 samplefmt:s16 samplerate:44100 chlayout:0x3
Output #0, mp3, to '/var/www/pyl5/www/output/images/bb7716073bf1982ea67bb500f02f1f85/squirrel.wav.mp3':
  Metadata:
    TSSE            : Lavf54.14.100
    Stream #0:0: Audio: mp3, 44100 Hz, stereo, s16, 128 kb/s
Stream mapping:
  Stream #0:0 -> #0:0 (pcm_s16le -> libmp3lame)
Press [q] to stop, [?] for help
size=       9kB time=00:00:00.52 bitrate= 141.0kbits/s    size=      22kB time=00:00:01.35 bitrate= 133.0kbits/s    size=      34kB time=00:00:02.14 bitrate= 131.2kbits/s    size=      45kB time=00:00:02.82 bitrate= 130.4kbits/s    size=      54kB time=00:00:03.42 bitrate= 130.0kbits/s    size=      67kB time=00:00:04.25 bitrate= 129.6kbits/s    size=      80kB time=00:00:05.04 bitrate= 129.4kbits/s    size=      91kB time=00:00:05.80 bitrate= 129.2kbits/s    size=     102kB time=00:00:06.50 bitrate= 129.0kbits/s    size=     109kB time=00:00:06.92 bitrate= 129.0kbits/s    
video:0kB audio:109kB subtitle:0 global headers:0kB muxing overhead 0.406559%
ffmpeg version N-42091-gf7cba73 Copyright (c) 2000-2012 the FFmpeg developers
  built on Jul  1 2012 05:10:32 with gcc 4.6.3
  configuration: --prefix=/root/ffmpeg-static/32bit --arch=x86_32 --extra-cflags='-m32 -I/root/ffmpeg-static/32bit/include -static' --extra-ldflags='-m32 -L/root/ffmpeg-static/32bit/lib -static' --extra-libs='-lxml2 -lexpat -lfreetype' --enable-static --disable-shared --disable-ffserver --disable-doc --enable-bzlib --enable-zlib --enable-postproc --enable-runtime-cpudetect --enable-libx264 --enable-gpl --enable-libtheora --enable-libvorbis --enable-libmp3lame --enable-gray --enable-libass --enable-libfreetype --enable-libopenjpeg --enable-libspeex --enable-libvo-aacenc --enable-libvo-amrwbenc --enable-version3 --enable-libvpx
  libavutil      51. 63.100 / 51. 63.100
  libavcodec     54. 31.100 / 54. 31.100
  libavformat    54. 14.100 / 54. 14.100
  libavdevice    54.  0.100 / 54.  0.100
  libavfilter     3.  0.100 /  3.  0.100
  libswscale      2.  1.100 /  2.  1.100
  libswresample   0. 15.100 /  0. 15.100
  libpostproc    52.  0.100 / 52.  0.100
[wav @ 0x98d9660] max_analyze_duration 5000000 reached at 5015510
Guessed Channel Layout for  Input Stream #0.0 : mono
Input #0, wav, from '/var/www/pyl5/www/output/images/bb7716073bf1982ea67bb500f02f1f85/tmpgarage.wav':
  Duration: 00:00:07.35, bitrate: 705 kb/s
    Stream #0:0: Audio: pcm_s16le ([1][0][0][0] / 0x0001), 44100 Hz, mono, s16, 705 kb/s
[graph 0 input from stream 0:0 @ 0x98df900] tb:1/44100 samplefmt:s16 samplerate:44100 chlayout:0x4
Output #0, mp3, to '/var/www/pyl5/www/output/images/bb7716073bf1982ea67bb500f02f1f85/chinchilla.wav.mp3':
  Metadata:
    TSSE            : Lavf54.14.100
    Stream #0:0: Audio: mp3, 44100 Hz, mono, s16, 128 kb/s
Stream mapping:
  Stream #0:0 -> #0:0 (pcm_s16le -> libmp3lame)
Press [q] to stop, [?] for help
size=      29kB time=00:00:01.77 bitrate= 131.8kbits/s    size=      59kB time=00:00:03.73 bitrate= 129.8kbits/s    size=      89kB time=00:00:05.64 bitrate= 129.2kbits/s    size=     116kB time=00:00:07.36 bitrate= 128.9kbits/s    
video:0kB audio:116kB subtitle:0 global headers:0kB muxing overhead 0.382138%
Hello, SBI!
temporal = /var/www/pyl5/www/output/images/bb7716073bf1982ea67bb500f02f1f85/
el script es valido
el vocabulario es valido
listo para los objetos
el objeto que da es Rabbit
el objeto que da es Rabbit
listo para los actores
el actor que da es Butterfly
el actor que da es Chinchilla
el actor que da es Apple
el actor que da es Squirrel
el objeto que da es Squirrel
el objeto que da es Squirrel
listo para los actores
el actor que da es Butterfly
el actor que da es Chinchilla
el actor que da es Apple
el actor que da es Squirrel
el objeto que da es Squirrel
es fondo o voz
es el por defecto
el sonido por defecto del actor es SquirrelDefault
hola
you can do it
you can do it
you can do it
temporal string = /var/www/pyl5/www/output/images/bb7716073bf1982ea67bb500f02f1f85/
copiando /var/www/pyl5/ImageProcessing/SoundFilm/squirrel.wav en /var/www/pyl5/www/output/images/bb7716073bf1982ea67bb500f02f1f85/tmp_1.wav
copiando /var/www/pyl5/ImageProcessing/SoundFilm/squirrel.wav en /var/www/pyl5/www/output/images/bb7716073bf1982ea67bb500f02f1f85/tmp_2.wav
copiando /var/www/pyl5/ImageProcessing/SoundFilm/squirrel.wav en /var/www/pyl5/www/output/images/bb7716073bf1982ea67bb500f02f1f85/tmp_3.wav
copiando /var/www/pyl5/ImageProcessing/SoundFilm/squirrel.wav en /var/www/pyl5/www/output/images/bb7716073bf1982ea67bb500f02f1f85/tmp_4.wav
copiando /var/www/pyl5/ImageProcessing/SoundFilm/squirrel.wav en /var/www/pyl5/www/output/images/bb7716073bf1982ea67bb500f02f1f85/tmp_5.wav
tu
el actor es ::Squirrel::
la animacion del actor es ::-default-::
la de la acciones ::CLAP::
el actor es ::Squirrel::
la animacion del actor es ::-default-::
la de la acciones ::FLAP::
el objeto que da es Chinchilla
el objeto que da es Chinchilla
listo para los actores
el actor que da es Butterfly
el actor que da es Chinchilla
el objeto que da es Chinchilla
es fondo o voz
es el por defecto
el sonido por defecto del actor es ChinchillaDefault
hola
you can do it
you can do it
you can do it
temporal string = /var/www/pyl5/www/output/images/bb7716073bf1982ea67bb500f02f1f85/
copiando /var/www/pyl5/ImageProcessing/SoundFilm/chinchilla.wav en /var/www/pyl5/www/output/images/bb7716073bf1982ea67bb500f02f1f85/tmp_1.wav
copiando /var/www/pyl5/ImageProcessing/SoundFilm/chinchilla.wav en /var/www/pyl5/www/output/images/bb7716073bf1982ea67bb500f02f1f85/tmp_2.wav
copiando /var/www/pyl5/ImageProcessing/SoundFilm/chinchilla.wav en /var/www/pyl5/www/output/images/bb7716073bf1982ea67bb500f02f1f85/tmp_3.wav
copiando /var/www/pyl5/ImageProcessing/SoundFilm/chinchilla.wav en /var/www/pyl5/www/output/images/bb7716073bf1982ea67bb500f02f1f85/tmp_4.wav
copiando /var/www/pyl5/ImageProcessing/SoundFilm/chinchilla.wav en /var/www/pyl5/www/output/images/bb7716073bf1982ea67bb500f02f1f85/tmp_5.wav
tu
el actor es ::Chinchilla::
la animacion del actor es ::Q5::
la de la acciones ::EAT::
el actor es ::Chinchilla::
la animacion del actor es ::Q5::
la de la acciones ::RUN::
el actor que da es Apple
el actor que da es Squirrel
el objeto que da es Butterfly
el objeto que da es Butterfly
listo para los actores
el actor que da es Butterfly
el objeto que da es Butterfly
el actor que da es Chinchilla
el actor que da es Apple
el actor que da es Squirrel
el objeto que da es Bird
el objeto que da es Bird
listo para los actores
el actor que da es Butterfly
el actor que da es Chinchilla
el actor que da es Apple
el actor que da es Squirrel
el objeto que da es FlyingSquirrel
el objeto que da es FlyingSquirrel
listo para los actores
el actor que da es Butterfly
el actor que da es Chinchilla
el actor que da es Apple
el actor que da es Squirrel
el objeto que da es Apple
el objeto que da es Apple
listo para los actores
el actor que da es Butterfly
el actor que da es Chinchilla
el actor que da es Apple
el objeto que da es Apple
el actor que da es Squirrel
el objeto que da es SBCamera
el objeto que da es SBCamera
listo para los actores
el actor que da es Butterfly
el actor que da es Chinchilla
el actor que da es Apple
el actor que da es Squirrel
el objeto que da es SBRectangle
el objeto que da es SBRectangle
listo para los actores
el actor que da es Butterfly
el actor que da es Chinchilla
el actor que da es Apple
el actor que da es Squirrel
sayonara, SBI!

Thu Oct 17 11:03:36 COT 2013
